<?xml version="1.0" standalone="no"?><!DOCTYPE svg PUBLIC "-//W3C//DTD SVG 1.1//EN" "http://www.w3.org/Graphics/SVG/1.1/DTD/svg11.dtd"><svg class="icon" width="200px" height="200.00px" viewBox="0 0 1024 1024" version="1.1" xmlns="http://www.w3.org/2000/svg"><path  d="M919.6 438.26L891.73 428A91.76 91.76 0 0 1 836 376.39a95.42 95.42 0 0 1 0-75.29l12.38-26.81c10.33-21.66 5.17-46.41-11.35-62.91l-28.9-28.88c-16.51-16.49-42.32-20.62-63-11.34l-26.84 12.38a95.65 95.65 0 0 1-75.35 0c-24.77-10.32-43.35-29.91-51.61-55.7l-6.2-24.74a56 56 0 0 0-52.6-36.1h-41.3a56 56 0 0 0-52.64 36.1l-10.32 27.84a91.76 91.76 0 0 1-51.61 55.69 95.65 95.65 0 0 1-75.35 0l-26.84-12.38c-21.67-10.31-46.44-5.15-63 11.35l-28.9 28.87c-16.52 16.51-21.68 41.26-11.36 62.91l12.39 26.81a95.42 95.42 0 0 1 0 75.29c-10.32 23.72-31 43.32-55.74 51.56L100 441.36c-19.61 8.25-32 27.84-33 48.47v41.25a54.55 54.55 0 0 0 37.16 51.57L132 593a91.73 91.73 0 0 1 55.74 51.56 95.42 95.42 0 0 1 0 75.29l-12.39 26.81c-10.32 21.65-5.16 46.41 11.36 62.91l28.9 28.87c16.51 16.5 42.32 20.63 63 11.35l26.84-12.38a95.65 95.65 0 0 1 75.35 0c24.77 10.31 43.35 29.91 51.61 55.69l10.32 27.84A56 56 0 0 0 495.36 957h41.29a56 56 0 0 0 52.65-36.1l10.32-26.81c8.26-24.75 27.86-45.37 52.64-55.69a93.16 93.16 0 0 1 74.32 0l26.84 12.38c21.67 10.31 46.44 5.15 63-11.34l28.9-28.88c16.52-16.5 21.68-41.25 11.35-62.91l-12.38-26.82a92.82 92.82 0 0 1 0-74.25c10.32-23.72 31-43.31 55.74-51.56l27.86-10.31c19.62-10.32 31-30.94 28.91-52.6v-41.25c0-23.72-14.46-44.35-37.16-52.6zM676 543.45c-16.51 81.48-90.84 138.2-174.44 133A164.78 164.78 0 0 1 346.73 521.8c-5.17-82.51 51.61-156.8 133.15-173.26 54.71-11.34 110.45 6.19 150.7 45.38 39.23 39.19 56.77 94.88 45.42 149.53z m0 0"  /></svg>